<svg xmlns="http://www.w3.org/2000/svg" width="900" height="420" viewBox="0 0 900 420" style="background:#ffffff"><title>Accuracy por clase</title><text x="40.0" y="36.0" font-family="Arial, sans-serif" font-size="22" font-weight="700" text-anchor="start" fill="#12343B">Exactitud por modulación</text><rect x="80.0" y="65.0" width="760.0" height="260.0" rx="0" fill="#F8FAFC" stroke="#CBD5E1"/><line x1="80.0" y1="325.0" x2="840.0" y2="325.0" stroke="#E5E7EB" stroke-width="1"/><text x="68.0" y="329.0" font-family="Arial, sans-serif" font-size="11" font-weight="400" text-anchor="end" fill="#64748B">0%</text><line x1="80.0" y1="273.0" x2="840.0" y2="273.0" stroke="#E5E7EB" stroke-width="1"/><text x="68.0" y="277.0" font-family="Arial, sans-serif" font-size="11" font-weight="400" text-anchor="end" fill="#64748B">20%</text><line x1="80.0" y1="221.0" x2="840.0" y2="221.0" stroke="#E5E7EB" stroke-width="1"/><text x="68.0" y="225.0" font-family="Arial, sans-serif" font-size="11" font-weight="400" text-anchor="end" fill="#64748B">40%</text><line x1="80.0" y1="169.0" x2="840.0" y2="169.0" stroke="#E5E7EB" stroke-width="1"/><text x="68.0" y="173.0" font-family="Arial, sans-serif" font-size="11" font-weight="400" text-anchor="end" fill="#64748B">60%</text><line x1="80.0" y1="117.0" x2="840.0" y2="117.0" stroke="#E5E7EB" stroke-width="1"/><text x="68.0" y="121.0" font-family="Arial, sans-serif" font-size="11" font-weight="400" text-anchor="end" fill="#64748B">80%</text><line x1="80.0" y1="65.0" x2="840.0" y2="65.0" stroke="#E5E7EB" stroke-width="1"/><text x="68.0" y="69.0" font-family="Arial, sans-serif" font-size="11" font-weight="400" text-anchor="end" fill="#64748B">100%</text><rect x="106.6" y="65.0" width="73.5" height="260.0" rx="0" fill="#2A9D8F" stroke="none"/><text x="143.3" y="57.0" font-family="Arial, sans-serif" font-size="12" font-weight="700" text-anchor="middle" fill="#334155">100.0%</text><text x="143.3" y="349.0" font-family="Arial, sans-serif" font-size="12" font-weight="700" text-anchor="middle" fill="#334155">BPSK</text><rect x="233.3" y="92.5" width="73.5" height="232.5" rx="0" fill="#2A9D8F" stroke="none"/><text x="270.0" y="84.5" font-family="Arial, sans-serif" font-size="12" font-weight="700" text-anchor="middle" fill="#334155">89.4%</text><text x="270.0" y="349.0" font-family="Arial, sans-serif" font-size="12" font-weight="700" text-anchor="middle" fill="#334155">QPSK</text><rect x="359.9" y="65.0" width="73.5" height="260.0" rx="0" fill="#2A9D8F" stroke="none"/><text x="396.7" y="57.0" font-family="Arial, sans-serif" font-size="12" font-weight="700" text-anchor="middle" fill="#334155">100.0%</text><text x="396.7" y="349.0" font-family="Arial, sans-serif" font-size="12" font-weight="700" text-anchor="middle" fill="#334155">8PSK</text><rect x="486.6" y="68.4" width="73.5" height="256.6" rx="0" fill="#2A9D8F" stroke="none"/><text x="523.3" y="60.4" font-family="Arial, sans-serif" font-size="12" font-weight="700" text-anchor="middle" fill="#334155">98.7%</text><text x="523.3" y="349.0" font-family="Arial, sans-serif" font-size="12" font-weight="700" text-anchor="middle" fill="#334155">16QAM</text><rect x="613.3" y="65.0" width="73.5" height="260.0" rx="0" fill="#2A9D8F" stroke="none"/><text x="650.0" y="57.0" font-family="Arial, sans-serif" font-size="12" font-weight="700" text-anchor="middle" fill="#334155">100.0%</text><text x="650.0" y="349.0" font-family="Arial, sans-serif" font-size="12" font-weight="700" text-anchor="middle" fill="#334155">2FSK</text><rect x="739.9" y="65.0" width="73.5" height="260.0" rx="0" fill="#2A9D8F" stroke="none"/><text x="776.7" y="57.0" font-family="Arial, sans-serif" font-size="12" font-weight="700" text-anchor="middle" fill="#334155">100.0%</text><text x="776.7" y="349.0" font-family="Arial, sans-serif" font-size="12" font-weight="700" text-anchor="middle" fill="#334155">4ASK</text></svg>