<svg xmlns="http://www.w3.org/2000/svg" width="980" height="440" viewBox="0 0 980 440" style="background:#ffffff"><title>Espectro</title><text x="40.0" y="36.0" font-family="Arial, sans-serif" font-size="22" font-weight="700" text-anchor="start" fill="#12343B">Espectro de potencia comparativo</text><rect x="80.0" y="75.0" width="840.0" height="270.0" rx="0" fill="#F8FAFC" stroke="#CBD5E1"/><line x1="80.0" y1="75.0" x2="920.0" y2="75.0" stroke="#E5E7EB" stroke-width="1"/><line x1="80.0" y1="129.0" x2="920.0" y2="129.0" stroke="#E5E7EB" stroke-width="1"/><line x1="80.0" y1="183.0" x2="920.0" y2="183.0" stroke="#E5E7EB" stroke-width="1"/><line x1="80.0" y1="237.0" x2="920.0" y2="237.0" stroke="#E5E7EB" stroke-width="1"/><line x1="80.0" y1="291.0" x2="920.0" y2="291.0" stroke="#E5E7EB" stroke-width="1"/><line x1="80.0" y1="345.0" x2="920.0" y2="345.0" stroke="#E5E7EB" stroke-width="1"/><polyline points="80.0,182.3 83.3,210.1 86.6,198.3 89.9,156.3 93.2,225.8 96.5,199.6 99.8,203.3 103.1,220.3 106.4,248.7 109.6,161.7 112.9,142.2 116.2,248.5 119.5,146.3 122.8,248.8 126.1,221.5 129.4,175.0 132.7,205.7 136.0,161.6 139.3,165.1 142.6,226.3 145.9,170.2 149.2,260.6 152.5,179.3 155.8,192.8 159.1,160.7 162.4,173.2 165.6,214.4 168.9,220.4 172.2,182.4 175.5,206.3 178.8,167.3 182.1,181.4 185.4,183.0 188.7,223.4 192.0,163.3 195.3,175.3 198.6,226.1 201.9,156.6 205.2,142.4 208.5,210.3 211.8,171.1 215.1,179.4 218.4,141.8 221.6,212.5 224.9,173.9 228.2,176.7 231.5,201.6 234.8,155.9 238.1,166.0 241.4,147.9 244.7,155.4 248.0,185.5 251.3,226.1 254.6,209.4 257.9,174.1 261.2,205.1 264.5,168.5 267.8,205.5 271.1,191.5 274.4,189.8 277.6,248.9 280.9,180.1 284.2,168.2 287.5,178.4 290.8,182.7 294.1,170.9 297.4,149.7 300.7,162.8 304.0,180.3 307.3,212.8 310.6,135.4 313.9,176.8 317.2,187.6 320.5,168.6 323.8,136.5 327.1,162.9 330.4,167.7 333.6,171.5 336.9,168.6 340.2,145.0 343.5,139.2 346.8,150.6 350.1,143.8 353.4,176.7 356.7,185.8 360.0,149.5 363.3,156.5 366.6,156.2 369.9,209.4 373.2,172.3 376.5,193.8 379.8,181.5 383.1,178.9 386.4,155.0 389.6,144.4 392.9,204.3 396.2,159.2 399.5,144.9 402.8,133.5 406.1,136.9 409.4,167.0 412.7,181.7 416.0,113.7 419.3,234.4 422.6,167.6 425.9,121.0 429.2,99.9 432.5,160.8 435.8,145.8 439.1,155.2 442.4,165.5 445.6,109.2 448.9,100.4 452.2,75.0 455.5,100.1 458.8,112.2 462.1,108.1 465.4,103.8 468.7,100.7 472.0,129.2 475.3,113.3 478.6,109.3 481.9,115.6 485.2,86.2 488.5,116.0 491.8,85.7 495.1,89.5 498.4,110.1 501.6,112.8 504.9,105.9 508.2,95.2 511.5,98.6 514.8,123.4 518.1,133.4 521.4,99.7 524.7,253.5 528.0,182.6 531.3,127.0 534.6,99.4 537.9,165.5 541.2,141.6 544.5,144.0 547.8,177.0 551.1,122.6 554.4,133.1 557.6,109.8 560.9,133.6 564.2,145.8 567.5,155.2 570.8,180.8 574.1,182.0 577.4,212.1 580.7,166.5 584.0,183.0 587.3,176.9 590.6,180.2 593.9,163.1 597.2,150.8 600.5,156.9 603.8,183.7 607.1,188.9 610.4,166.7 613.6,148.4 616.9,142.3 620.2,178.8 623.5,255.5 626.8,143.8 630.1,192.1 633.4,202.3 636.7,174.0 640.0,141.8 643.3,184.5 646.6,196.0 649.9,164.1 653.2,190.0 656.5,161.3 659.8,149.1 663.1,133.9 666.4,181.4 669.6,260.9 672.9,185.5 676.2,172.0 679.5,208.4 682.8,181.4 686.1,193.8 689.4,191.4 692.7,178.4 696.0,217.9 699.3,167.9 702.6,169.6 705.9,185.8 709.2,188.9 712.5,200.4 715.8,168.9 719.1,158.7 722.4,169.6 725.6,222.0 728.9,194.6 732.2,165.5 735.5,235.2 738.8,186.3 742.1,196.0 745.4,149.5 748.7,195.9 752.0,195.7 755.3,184.8 758.6,177.0 761.9,146.5 765.2,157.2 768.5,153.7 771.8,221.5 775.1,192.5 778.4,171.9 781.6,181.0 784.9,202.4 788.2,194.0 791.5,231.5 794.8,173.5 798.1,207.4 801.4,202.0 804.7,220.8 808.0,179.5 811.3,181.9 814.6,173.5 817.9,180.5 821.2,224.5 824.5,182.1 827.8,145.8 831.1,159.8 834.4,186.5 837.6,164.1 840.9,185.8 844.2,164.3 847.5,182.1 850.8,157.3 854.1,231.2 857.4,210.0 860.7,189.2 864.0,216.0 867.3,174.0 870.6,197.0 873.9,170.8 877.2,191.7 880.5,195.8 883.8,187.9 887.1,210.7 890.4,164.1 893.6,185.2 896.9,185.8 900.2,193.4 903.5,228.0 906.8,193.9 910.1,243.2 913.4,215.5 916.7,177.8 920.0,185.3" fill="none" stroke="#156082" stroke-width="1.9" stroke-linejoin="round" stroke-linecap="round"/><polyline points="80.0,251.5 83.3,209.8 86.6,155.6 89.9,179.7 93.2,171.8 96.5,192.1 99.8,179.2 103.1,185.5 106.4,179.0 109.6,152.0 112.9,164.5 116.2,186.1 119.5,199.4 122.8,170.6 126.1,178.1 129.4,177.1 132.7,179.5 136.0,167.2 139.3,164.6 142.6,168.6 145.9,166.8 149.2,157.7 152.5,196.8 155.8,189.7 159.1,184.9 162.4,175.8 165.6,190.5 168.9,202.1 172.2,224.9 175.5,198.3 178.8,222.3 182.1,219.2 185.4,186.7 188.7,223.7 192.0,178.5 195.3,196.4 198.6,192.4 201.9,166.4 205.2,191.6 208.5,185.1 211.8,190.5 215.1,158.7 218.4,178.3 221.6,180.8 224.9,157.8 228.2,161.7 231.5,196.5 234.8,166.6 238.1,191.9 241.4,182.2 244.7,208.5 248.0,153.5 251.3,191.8 254.6,158.3 257.9,193.8 261.2,181.6 264.5,192.6 267.8,170.6 271.1,165.9 274.4,180.2 277.6,188.9 280.9,168.5 284.2,202.3 287.5,193.0 290.8,172.0 294.1,188.2 297.4,160.7 300.7,161.3 304.0,210.2 307.3,143.0 310.6,162.5 313.9,175.8 317.2,207.0 320.5,144.4 323.8,158.5 327.1,153.4 330.4,147.7 333.6,180.7 336.9,156.9 340.2,165.0 343.5,179.6 346.8,158.2 350.1,175.1 353.4,140.6 356.7,172.9 360.0,133.0 363.3,168.3 366.6,174.5 369.9,199.2 373.2,155.6 376.5,186.7 379.8,160.2 383.1,211.4 386.4,203.0 389.6,186.3 392.9,185.2 396.2,150.0 399.5,164.8 402.8,150.5 406.1,152.4 409.4,221.8 412.7,118.6 416.0,134.2 419.3,138.5 422.6,153.9 425.9,110.5 429.2,122.5 432.5,122.5 435.8,113.3 439.1,142.0 442.4,140.7 445.6,124.3 448.9,135.0 452.2,109.3 455.5,132.1 458.8,105.5 462.1,131.4 465.4,77.2 468.7,118.1 472.0,118.2 475.3,113.5 478.6,75.0 481.9,110.7 485.2,80.6 488.5,99.8 491.8,92.4 495.1,92.8 498.4,112.2 501.6,93.9 504.9,108.2 508.2,92.7 511.5,102.9 514.8,124.4 518.1,85.6 521.4,113.1 524.7,119.0 528.0,131.7 531.3,94.8 534.6,105.7 537.9,116.9 541.2,105.9 544.5,143.5 547.8,163.9 551.1,144.6 554.4,182.7 557.6,131.6 560.9,169.9 564.2,134.3 567.5,157.0 570.8,122.5 574.1,165.9 577.4,166.9 580.7,187.8 584.0,168.3 587.3,201.7 590.6,206.1 593.9,185.4 597.2,207.4 600.5,215.9 603.8,173.6 607.1,183.4 610.4,172.5 613.6,168.1 616.9,154.6 620.2,169.2 623.5,149.6 626.8,160.4 630.1,150.0 633.4,169.5 636.7,135.3 640.0,147.7 643.3,157.7 646.6,154.4 649.9,169.5 653.2,170.3 656.5,147.7 659.8,182.6 663.1,149.2 666.4,149.7 669.6,162.6 672.9,178.1 676.2,143.1 679.5,249.7 682.8,214.0 686.1,184.2 689.4,175.0 692.7,203.0 696.0,191.8 699.3,318.0 702.6,211.2 705.9,230.9 709.2,163.7 712.5,181.8 715.8,176.5 719.1,164.7 722.4,182.8 725.6,217.1 728.9,160.8 732.2,156.3 735.5,181.4 738.8,175.7 742.1,156.0 745.4,164.2 748.7,186.5 752.0,158.7 755.3,159.7 758.6,180.6 761.9,184.9 765.2,231.1 768.5,204.2 771.8,204.0 775.1,169.0 778.4,190.2 781.6,173.0 784.9,206.2 788.2,175.0 791.5,209.8 794.8,188.6 798.1,277.8 801.4,194.1 804.7,195.3 808.0,216.7 811.3,203.2 814.6,225.2 817.9,216.7 821.2,229.8 824.5,166.0 827.8,166.7 831.1,184.3 834.4,151.3 837.6,187.2 840.9,203.1 844.2,210.7 847.5,154.8 850.8,174.0 854.1,167.7 857.4,152.8 860.7,225.4 864.0,206.0 867.3,211.4 870.6,178.2 873.9,170.0 877.2,194.6 880.5,165.5 883.8,208.6 887.1,155.6 890.4,197.4 893.6,188.1 896.9,218.2 900.2,175.8 903.5,173.1 906.8,190.3 910.1,214.8 913.4,187.9 916.7,165.7 920.0,219.2" fill="none" stroke="#2A9D8F" stroke-width="1.9" stroke-linejoin="round" stroke-linecap="round"/><polyline points="80.0,259.1 83.3,207.8 86.6,263.6 89.9,192.5 93.2,278.5 96.5,227.3 99.8,235.5 103.1,229.1 106.4,202.9 109.6,207.8 112.9,246.2 116.2,210.6 119.5,236.4 122.8,229.6 126.1,243.8 129.4,200.3 132.7,220.7 136.0,214.4 139.3,205.5 142.6,227.1 145.9,201.1 149.2,193.9 152.5,199.0 155.8,195.5 159.1,207.4 162.4,252.5 165.6,205.9 168.9,198.9 172.2,221.5 175.5,217.9 178.8,214.2 182.1,226.4 185.4,196.6 188.7,241.3 192.0,208.9 195.3,214.7 198.6,194.6 201.9,192.5 205.2,241.6 208.5,220.0 211.8,192.5 215.1,219.5 218.4,225.3 221.6,188.5 224.9,229.0 228.2,242.4 231.5,199.6 234.8,234.5 238.1,247.5 241.4,204.7 244.7,276.2 248.0,212.3 251.3,190.2 254.6,209.1 257.9,177.1 261.2,213.0 264.5,169.6 267.8,197.7 271.1,186.1 274.4,167.7 277.6,191.5 280.9,179.6 284.2,173.9 287.5,182.9 290.8,177.6 294.1,176.9 297.4,164.4 300.7,171.1 304.0,159.0 307.3,170.6 310.6,228.4 313.9,167.9 317.2,230.4 320.5,182.1 323.8,172.7 327.1,101.5 330.4,132.4 333.6,143.7 336.9,137.6 340.2,120.7 343.5,138.8 346.8,126.8 350.1,146.8 353.4,148.4 356.7,160.8 360.0,156.0 363.3,130.8 366.6,159.4 369.9,151.5 373.2,166.3 376.5,164.4 379.8,144.8 383.1,161.3 386.4,182.1 389.6,166.6 392.9,212.9 396.2,183.7 399.5,186.5 402.8,206.4 406.1,178.4 409.4,179.8 412.7,190.3 416.0,233.1 419.3,186.9 422.6,196.2 425.9,220.2 429.2,195.9 432.5,174.7 435.8,233.6 439.1,217.9 442.4,206.2 445.6,211.7 448.9,206.0 452.2,187.0 455.5,184.4 458.8,193.8 462.1,248.3 465.4,203.5 468.7,180.1 472.0,204.9 475.3,181.2 478.6,182.8 481.9,182.1 485.2,182.6 488.5,235.6 491.8,210.2 495.1,194.2 498.4,203.0 501.6,189.3 504.9,210.3 508.2,199.5 511.5,182.0 514.8,199.0 518.1,211.1 521.4,201.4 524.7,185.8 528.0,199.7 531.3,204.6 534.6,206.3 537.9,180.5 541.2,216.9 544.5,234.5 547.8,228.7 551.1,208.9 554.4,173.7 557.6,196.3 560.9,198.0 564.2,195.7 567.5,190.2 570.8,191.7 574.1,153.9 577.4,177.3 580.7,167.5 584.0,184.8 587.3,178.7 590.6,153.5 593.9,161.2 597.2,165.9 600.5,166.4 603.8,168.8 607.1,164.3 610.4,168.4 613.6,145.0 616.9,154.4 620.2,138.5 623.5,144.3 626.8,176.0 630.1,129.2 633.4,146.5 636.7,127.9 640.0,106.1 643.3,84.9 646.6,164.6 649.9,235.7 653.2,215.8 656.5,167.0 659.8,171.9 663.1,166.2 666.4,165.1 669.6,175.3 672.9,195.1 676.2,165.7 679.5,152.3 682.8,193.4 686.1,158.9 689.4,184.7 692.7,175.4 696.0,158.8 699.3,187.5 702.6,181.5 705.9,190.0 709.2,195.9 712.5,199.6 715.8,192.5 719.1,190.2 722.4,200.2 725.6,210.5 728.9,177.3 732.2,191.1 735.5,219.8 738.8,323.5 742.1,205.3 745.4,206.8 748.7,183.6 752.0,226.9 755.3,195.2 758.6,214.6 761.9,220.1 765.2,244.1 768.5,206.7 771.8,207.5 775.1,214.3 778.4,204.4 781.6,194.6 784.9,182.8 788.2,235.5 791.5,200.2 794.8,198.5 798.1,225.5 801.4,215.1 804.7,225.2 808.0,200.3 811.3,197.0 814.6,268.2 817.9,231.5 821.2,219.9 824.5,233.9 827.8,213.1 831.1,213.6 834.4,198.4 837.6,199.2 840.9,233.9 844.2,234.0 847.5,216.4 850.8,240.7 854.1,205.1 857.4,218.1 860.7,233.0 864.0,238.1 867.3,199.4 870.6,188.2 873.9,284.1 877.2,234.1 880.5,241.4 883.8,210.4 887.1,238.7 890.4,193.0 893.6,209.7 896.9,204.4 900.2,203.2 903.5,186.2 906.8,190.1 910.1,244.0 913.4,206.9 916.7,203.7 920.0,193.5" fill="none" stroke="#E76F51" stroke-width="1.9" stroke-linejoin="round" stroke-linecap="round"/><text x="80.0" y="381.0" font-family="Arial, sans-serif" font-size="12" font-weight="400" text-anchor="start" fill="#475569">frecuencia normalizada</text><text x="20.0" y="99.0" font-family="Arial, sans-serif" font-size="12" font-weight="400" text-anchor="start" fill="#475569">dB</text><rect x="650.0" y="32.0" width="14.0" height="14.0" rx="0" fill="#156082" stroke="none"/><text x="670.0" y="44.0" font-family="Arial, sans-serif" font-size="12" font-weight="400" text-anchor="start" fill="#334155">BPSK</text><rect x="745.0" y="32.0" width="14.0" height="14.0" rx="0" fill="#2A9D8F" stroke="none"/><text x="765.0" y="44.0" font-family="Arial, sans-serif" font-size="12" font-weight="400" text-anchor="start" fill="#334155">16QAM</text><rect x="840.0" y="32.0" width="14.0" height="14.0" rx="0" fill="#E76F51" stroke="none"/><text x="860.0" y="44.0" font-family="Arial, sans-serif" font-size="12" font-weight="400" text-anchor="start" fill="#334155">2FSK</text></svg>