<svg xmlns="http://www.w3.org/2000/svg" width="920" height="360" viewBox="0 0 920 360" style="background:#ffffff"><title>Flujo metodologico</title><text x="40.0" y="36.0" font-family="Arial, sans-serif" font-size="22" font-weight="700" text-anchor="start" fill="#12343B">Flujo metodológico del proyecto</text><rect x="45.0" y="95.0" width="140.0" height="125.0" rx="8" fill="#EAF4F4" stroke="#CBD5E1"/><text x="115.0" y="129.0" font-family="Arial, sans-serif" font-size="15" font-weight="700" text-anchor="middle" fill="#12343B">Señal IQ</text><text x="115.0" y="163.0" font-family="Arial, sans-serif" font-size="12" font-weight="400" text-anchor="middle" fill="#334155">I/Q complejo</text><text x="115.0" y="183.0" font-family="Arial, sans-serif" font-size="12" font-weight="400" text-anchor="middle" fill="#334155">con ruido y offset</text><line x1="190.0" y1="157.0" x2="213.0" y2="157.0" stroke="#64748B" stroke-width="2"/><polygon points="213.0,157.0 203.0,151.0 203.0,163.0" fill="#64748B"/><rect x="220.0" y="95.0" width="140.0" height="125.0" rx="8" fill="#EAF4F4" stroke="#CBD5E1"/><text x="290.0" y="129.0" font-family="Arial, sans-serif" font-size="15" font-weight="700" text-anchor="middle" fill="#12343B">DSP</text><text x="290.0" y="163.0" font-family="Arial, sans-serif" font-size="12" font-weight="400" text-anchor="middle" fill="#334155">FFT, amplitud,</text><text x="290.0" y="183.0" font-family="Arial, sans-serif" font-size="12" font-weight="400" text-anchor="middle" fill="#334155">fase y energía</text><line x1="365.0" y1="157.0" x2="388.0" y2="157.0" stroke="#64748B" stroke-width="2"/><polygon points="388.0,157.0 378.0,151.0 378.0,163.0" fill="#64748B"/><rect x="395.0" y="95.0" width="140.0" height="125.0" rx="8" fill="#EAF4F4" stroke="#CBD5E1"/><text x="465.0" y="129.0" font-family="Arial, sans-serif" font-size="15" font-weight="700" text-anchor="middle" fill="#12343B">Features</text><text x="465.0" y="163.0" font-family="Arial, sans-serif" font-size="12" font-weight="400" text-anchor="middle" fill="#334155">24+ rasgos</text><text x="465.0" y="183.0" font-family="Arial, sans-serif" font-size="12" font-weight="400" text-anchor="middle" fill="#334155">compactos</text><line x1="540.0" y1="157.0" x2="563.0" y2="157.0" stroke="#64748B" stroke-width="2"/><polygon points="563.0,157.0 553.0,151.0 553.0,163.0" fill="#64748B"/><rect x="570.0" y="95.0" width="140.0" height="125.0" rx="8" fill="#EAF4F4" stroke="#CBD5E1"/><text x="640.0" y="129.0" font-family="Arial, sans-serif" font-size="15" font-weight="700" text-anchor="middle" fill="#12343B">IA</text><text x="640.0" y="163.0" font-family="Arial, sans-serif" font-size="12" font-weight="400" text-anchor="middle" fill="#334155">MLP ligero</text><text x="640.0" y="183.0" font-family="Arial, sans-serif" font-size="12" font-weight="400" text-anchor="middle" fill="#334155">en NumPy</text><line x1="715.0" y1="157.0" x2="738.0" y2="157.0" stroke="#64748B" stroke-width="2"/><polygon points="738.0,157.0 728.0,151.0 728.0,163.0" fill="#64748B"/><rect x="745.0" y="95.0" width="140.0" height="125.0" rx="8" fill="#EAF4F4" stroke="#CBD5E1"/><text x="815.0" y="129.0" font-family="Arial, sans-serif" font-size="15" font-weight="700" text-anchor="middle" fill="#12343B">Salida</text><text x="815.0" y="163.0" font-family="Arial, sans-serif" font-size="12" font-weight="400" text-anchor="middle" fill="#334155">BPSK, QPSK,</text><text x="815.0" y="183.0" font-family="Arial, sans-serif" font-size="12" font-weight="400" text-anchor="middle" fill="#334155">8PSK, QAM...</text><text x="45.0" y="285.0" font-family="Arial, sans-serif" font-size="14" font-weight="400" text-anchor="start" fill="#475569">La ventaja investigativa es que cada etapa puede medirse, modificarse y justificarse: no es una caja negra completa.</text></svg>