<svg xmlns="http://www.w3.org/2000/svg" width="920" height="360" viewBox="0 0 920 360" style="background:#ffffff"><title>Señal IQ</title><text x="40.0" y="32.0" font-family="Arial, sans-serif" font-size="20" font-weight="700" text-anchor="start" fill="#12343B">Señal IQ recibida en el tiempo (ejemplo QPSK con ruido)</text><rect x="70.0" y="70.0" width="800.0" height="220.0" rx="0" fill="#F8FAFC" stroke="#CBD5E1"/><line x1="70.0" y1="70.0" x2="870.0" y2="70.0" stroke="#E5E7EB" stroke-width="1"/><line x1="70.0" y1="114.0" x2="870.0" y2="114.0" stroke="#E5E7EB" stroke-width="1"/><line x1="70.0" y1="158.0" x2="870.0" y2="158.0" stroke="#E5E7EB" stroke-width="1"/><line x1="70.0" y1="202.0" x2="870.0" y2="202.0" stroke="#E5E7EB" stroke-width="1"/><line x1="70.0" y1="246.0" x2="870.0" y2="246.0" stroke="#E5E7EB" stroke-width="1"/><line x1="70.0" y1="290.0" x2="870.0" y2="290.0" stroke="#E5E7EB" stroke-width="1"/><polyline points="70.0,217.9 73.1,222.8 76.2,229.5 79.3,206.4 82.4,205.8 85.4,191.8 88.5,172.8 91.6,153.7 94.7,177.0 97.8,185.1 100.9,221.1 104.0,233.4 107.1,233.2 110.2,239.3 113.2,255.9 116.3,257.9 119.4,240.5 122.5,229.6 125.6,253.0 128.7,255.4 131.8,245.8 134.9,249.0 138.0,231.8 141.0,213.7 144.1,144.2 147.2,137.0 150.3,162.5 153.4,169.4 156.5,189.1 159.6,180.5 162.7,225.0 165.8,222.5 168.8,247.5 171.9,212.5 175.0,202.9 178.1,211.0 181.2,171.1 184.3,186.1 187.4,189.4 190.5,163.5 193.6,241.7 196.6,244.7 199.7,204.9 202.8,216.1 205.9,195.6 209.0,190.4 212.1,221.0 215.2,192.4 218.3,288.2 221.4,259.4 224.4,233.3 227.5,255.4 230.6,246.9 233.7,226.9 236.8,212.4 239.9,218.4 243.0,109.5 246.1,92.0 249.2,97.8 252.2,105.1 255.3,98.9 258.4,105.5 261.5,108.1 264.6,91.2 267.7,124.7 270.8,120.8 273.9,89.2 276.9,113.5 280.0,78.7 283.1,103.6 286.2,101.0 289.3,94.9 292.4,193.8 295.5,206.4 298.6,231.2 301.7,240.9 304.7,237.6 307.8,245.1 310.9,258.7 314.0,246.1 317.1,170.1 320.2,192.3 323.3,184.3 326.4,209.8 329.5,226.6 332.5,231.3 335.6,247.0 338.7,258.7 341.8,97.5 344.9,113.0 348.0,105.8 351.1,103.3 354.2,99.8 357.3,103.2 360.3,114.5 363.4,148.3 366.5,224.5 369.6,222.6 372.7,203.4 375.8,177.8 378.9,169.0 382.0,165.6 385.1,150.6 388.1,166.6 391.2,213.4 394.3,216.8 397.4,242.6 400.5,234.5 403.6,250.3 406.7,235.6 409.8,236.3 412.9,258.8 415.9,82.7 419.0,107.7 422.1,82.1 425.2,122.3 428.3,122.2 431.4,128.7 434.5,151.2 437.6,174.6 440.7,173.1 443.7,159.2 446.8,189.3 449.9,200.4 453.0,186.4 456.1,210.1 459.2,216.3 462.3,222.3 465.4,124.5 468.5,105.5 471.5,101.5 474.6,103.6 477.7,115.7 480.8,96.2 483.9,127.6 487.0,122.6 490.1,127.0 493.2,129.1 496.3,121.0 499.3,119.7 502.4,129.2 505.5,152.4 508.6,168.6 511.7,217.0 514.8,181.7 517.9,172.2 521.0,211.3 524.1,223.2 527.1,224.8 530.2,231.0 533.3,244.1 536.4,254.4 539.5,246.5 542.6,269.9 545.7,275.3 548.8,228.8 551.9,248.4 554.9,226.5 558.0,207.7 561.1,203.5 564.2,251.1 567.3,243.6 570.4,266.3 573.5,253.1 576.6,237.0 579.7,248.2 582.7,282.8 585.8,269.3 588.9,131.2 592.0,110.8 595.1,135.3 598.2,146.2 601.3,176.4 604.4,168.0 607.5,211.7 610.5,187.9 613.6,230.9 616.7,252.8 619.8,221.1 622.9,237.6 626.0,217.2 629.1,211.3 632.2,197.7 635.3,167.5 638.3,89.2 641.4,110.9 644.5,141.3 647.6,96.4 650.7,103.8 653.8,118.8 656.9,136.8 660.0,117.2 663.1,172.7 666.1,170.1 669.2,190.4 672.3,177.1 675.4,199.5 678.5,175.8 681.6,213.9 684.7,226.7 687.8,219.7 690.8,228.3 693.9,223.2 697.0,191.0 700.1,193.7 703.2,162.8 706.3,160.2 709.4,152.1 712.5,142.3 715.6,134.6 718.6,119.2 721.7,122.4 724.8,137.0 727.9,104.9 731.0,108.9 734.1,119.6 737.2,159.4 740.3,163.8 743.4,171.3 746.4,138.9 749.5,137.6 752.6,143.2 755.7,109.3 758.8,122.1 761.9,187.8 765.0,198.4 768.1,162.1 771.2,158.2 774.2,151.5 777.3,152.6 780.4,120.7 783.5,117.3 786.6,227.0 789.7,205.0 792.8,216.2 795.9,208.7 799.0,181.7 802.0,168.1 805.1,152.2 808.2,146.4 811.3,198.9 814.4,242.0 817.5,225.2 820.6,236.6 823.7,226.9 826.8,247.2 829.8,246.9 832.9,228.1 836.0,91.5 839.1,96.9 842.2,114.6 845.3,113.5 848.4,144.8 851.5,142.4 854.6,132.0 857.6,174.8 860.7,249.0 863.8,251.4 866.9,246.0 870.0,271.9" fill="none" stroke="#156082" stroke-width="2" stroke-linejoin="round" stroke-linecap="round"/><polyline points="70.0,138.0 73.1,133.8 76.2,103.5 79.3,116.9 82.4,97.2 85.4,78.8 88.5,99.4 91.6,113.6 94.7,252.9 97.8,258.2 100.9,228.0 104.0,223.0 107.1,220.1 110.2,229.1 113.2,234.2 116.3,198.9 119.4,187.3 122.5,184.8 125.6,172.5 128.7,154.7 131.8,128.9 134.9,158.0 138.0,128.3 141.0,102.5 144.1,273.1 147.2,250.3 150.3,250.3 153.4,250.3 156.5,226.6 159.6,248.8 162.7,253.6 165.8,244.8 168.8,124.8 171.9,129.9 175.0,131.9 178.1,117.1 181.2,106.8 184.3,79.1 187.4,109.8 190.5,111.0 193.6,167.4 196.6,120.8 199.7,124.5 202.8,110.3 205.9,107.8 209.0,118.0 212.1,101.5 215.2,115.1 218.3,169.8 221.4,148.8 224.4,119.3 227.5,155.2 230.6,117.1 233.7,113.1 236.8,132.7 239.9,107.6 243.0,131.1 246.1,168.5 249.2,165.4 252.2,184.7 255.3,189.0 258.4,214.3 261.5,213.4 264.6,217.5 267.7,132.9 270.8,145.7 273.9,145.3 276.9,161.7 280.0,165.6 283.1,187.5 286.2,176.6 289.3,196.0 292.4,262.6 295.5,218.4 298.6,241.9 301.7,226.9 304.7,197.5 307.8,213.3 310.9,164.2 314.0,211.7 317.1,290.0 320.2,246.5 323.3,265.1 326.4,239.7 329.5,245.5 332.5,230.4 335.6,213.5 338.7,206.2 341.8,159.2 344.9,173.2 348.0,181.0 351.1,198.5 354.2,184.5 357.3,225.0 360.3,216.7 363.4,224.6 366.5,140.0 369.6,105.8 372.7,90.3 375.8,105.4 378.9,92.1 382.0,102.3 385.1,101.3 388.1,95.7 391.2,242.6 394.3,226.2 397.4,246.6 400.5,215.4 403.6,230.5 406.7,201.7 409.8,194.2 412.9,168.2 415.9,195.8 419.0,176.2 422.1,216.7 425.2,235.2 428.3,257.5 431.4,237.3 434.5,247.4 437.6,237.2 440.7,238.7 443.7,241.3 446.8,263.5 449.9,265.7 453.0,251.0 456.1,252.2 459.2,231.4 462.3,229.2 465.4,127.1 468.5,153.7 471.5,182.1 474.6,159.2 477.7,145.3 480.8,182.4 483.9,222.7 487.0,232.0 490.1,200.2 493.2,232.0 496.3,237.6 499.3,251.0 502.4,234.4 505.5,247.7 508.6,267.8 511.7,257.8 514.8,252.7 517.9,251.3 521.0,229.6 524.1,244.4 527.1,230.4 530.2,193.5 533.3,182.1 536.4,169.2 539.5,177.9 542.6,161.0 545.7,171.7 548.8,159.5 551.9,159.8 554.9,123.8 558.0,112.4 561.1,106.8 564.2,214.5 567.3,204.8 570.4,176.0 573.5,190.9 576.6,163.4 579.7,138.7 582.7,137.4 585.8,129.2 588.9,220.0 592.0,228.3 595.1,242.9 598.2,268.6 601.3,274.5 604.4,247.7 607.5,254.6 610.5,225.6 613.6,147.4 616.7,110.2 619.8,140.9 622.9,102.0 626.0,107.5 629.1,90.3 632.2,115.5 635.3,112.1 638.3,182.8 641.4,166.7 644.5,191.2 647.6,191.6 650.7,232.8 653.8,204.8 656.9,218.0 660.0,249.5 663.1,256.0 666.1,250.3 669.2,243.8 672.3,253.6 675.4,241.1 678.5,261.9 681.6,223.5 684.7,219.0 687.8,108.9 690.8,127.6 693.9,95.2 697.0,119.0 700.1,83.1 703.2,117.7 706.3,104.5 709.4,93.2 712.5,122.6 715.6,139.9 718.6,128.5 721.7,136.3 724.8,145.5 727.9,147.9 731.0,161.4 734.1,170.9 737.2,113.1 740.3,109.3 743.4,101.1 746.4,124.4 749.5,133.7 752.6,126.8 755.7,105.1 758.8,115.8 761.9,136.0 765.0,108.1 768.1,103.4 771.2,104.2 774.2,105.9 777.3,117.7 780.4,118.0 783.5,138.1 786.6,138.6 789.7,125.8 792.8,106.2 795.9,94.4 799.0,70.0 802.0,110.8 805.1,90.5 808.2,108.0 811.3,246.0 814.4,225.3 817.5,228.4 820.6,227.8 823.7,217.3 826.8,210.0 829.8,200.3 832.9,168.5 836.0,187.1 839.1,215.7 842.2,231.1 845.3,208.1 848.4,232.0 851.5,238.7 854.6,245.2 857.6,249.3 860.7,203.3 863.8,164.4 866.9,154.2 870.0,155.6" fill="none" stroke="#E76F51" stroke-width="2" stroke-linejoin="round" stroke-linecap="round"/><text x="70.0" y="324.0" font-family="Arial, sans-serif" font-size="12" font-weight="400" text-anchor="start" fill="#475569">muestras</text><text x="14.0" y="88.0" font-family="Arial, sans-serif" font-size="12" font-weight="400" text-anchor="start" fill="#475569">amplitud</text><rect x="720.0" y="28.0" width="14.0" height="14.0" rx="0" fill="#156082" stroke="none"/><text x="742.0" y="40.0" font-family="Arial, sans-serif" font-size="13" font-weight="400" text-anchor="start" fill="#334155">I</text><rect x="770.0" y="28.0" width="14.0" height="14.0" rx="0" fill="#E76F51" stroke="none"/><text x="792.0" y="40.0" font-family="Arial, sans-serif" font-size="13" font-weight="400" text-anchor="start" fill="#334155">Q</text></svg>