<svg xmlns="http://www.w3.org/2000/svg" width="760" height="680" viewBox="0 0 760 680" style="background:#ffffff"><title>Matriz de confusion</title><text x="40.0" y="36.0" font-family="Arial, sans-serif" font-size="22" font-weight="700" text-anchor="start" fill="#12343B">Matriz de confusión del clasificador</text><text x="382.0" y="68.0" font-family="Arial, sans-serif" font-size="14" font-weight="700" text-anchor="middle" fill="#334155">Predicho</text><text x="54.0" y="317.0" font-family="Arial, sans-serif" font-size="14" font-weight="700" text-anchor="middle" fill="#334155">Real</text><text x="197.0" y="77.0" font-family="Arial, sans-serif" font-size="12" font-weight="700" text-anchor="middle" fill="#334155">BPSK</text><text x="142.0" y="137.0" font-family="Arial, sans-serif" font-size="12" font-weight="700" text-anchor="end" fill="#334155">BPSK</text><text x="271.0" y="77.0" font-family="Arial, sans-serif" font-size="12" font-weight="700" text-anchor="middle" fill="#334155">QPSK</text><text x="142.0" y="211.0" font-family="Arial, sans-serif" font-size="12" font-weight="700" text-anchor="end" fill="#334155">QPSK</text><text x="345.0" y="77.0" font-family="Arial, sans-serif" font-size="12" font-weight="700" text-anchor="middle" fill="#334155">8PSK</text><text x="142.0" y="285.0" font-family="Arial, sans-serif" font-size="12" font-weight="700" text-anchor="end" fill="#334155">8PSK</text><text x="419.0" y="77.0" font-family="Arial, sans-serif" font-size="12" font-weight="700" text-anchor="middle" fill="#334155">16QAM</text><text x="142.0" y="359.0" font-family="Arial, sans-serif" font-size="12" font-weight="700" text-anchor="end" fill="#334155">16QAM</text><text x="493.0" y="77.0" font-family="Arial, sans-serif" font-size="12" font-weight="700" text-anchor="middle" fill="#334155">2FSK</text><text x="142.0" y="433.0" font-family="Arial, sans-serif" font-size="12" font-weight="700" text-anchor="end" fill="#334155">2FSK</text><text x="567.0" y="77.0" font-family="Arial, sans-serif" font-size="12" font-weight="700" text-anchor="middle" fill="#334155">4ASK</text><text x="142.0" y="507.0" font-family="Arial, sans-serif" font-size="12" font-weight="700" text-anchor="end" fill="#334155">4ASK</text><rect x="160.0" y="95.0" width="74.0" height="74.0" rx="0" fill="rgb(73,171,182)" stroke="#FFFFFF"/><text x="197.0" y="137.0" font-family="Arial, sans-serif" font-size="16" font-weight="700" text-anchor="middle" fill="#FFFFFF">79</text><rect x="234.0" y="95.0" width="74.0" height="74.0" rx="0" fill="rgb(238,250,252)" stroke="#FFFFFF"/><text x="271.0" y="137.0" font-family="Arial, sans-serif" font-size="16" font-weight="700" text-anchor="middle" fill="#111827">0</text><rect x="308.0" y="95.0" width="74.0" height="74.0" rx="0" fill="rgb(238,250,252)" stroke="#FFFFFF"/><text x="345.0" y="137.0" font-family="Arial, sans-serif" font-size="16" font-weight="700" text-anchor="middle" fill="#111827">0</text><rect x="382.0" y="95.0" width="74.0" height="74.0" rx="0" fill="rgb(238,250,252)" stroke="#FFFFFF"/><text x="419.0" y="137.0" font-family="Arial, sans-serif" font-size="16" font-weight="700" text-anchor="middle" fill="#111827">0</text><rect x="456.0" y="95.0" width="74.0" height="74.0" rx="0" fill="rgb(238,250,252)" stroke="#FFFFFF"/><text x="493.0" y="137.0" font-family="Arial, sans-serif" font-size="16" font-weight="700" text-anchor="middle" fill="#111827">0</text><rect x="530.0" y="95.0" width="74.0" height="74.0" rx="0" fill="rgb(238,250,252)" stroke="#FFFFFF"/><text x="567.0" y="137.0" font-family="Arial, sans-serif" font-size="16" font-weight="700" text-anchor="middle" fill="#111827">0</text><rect x="160.0" y="169.0" width="74.0" height="74.0" rx="0" fill="rgb(238,250,252)" stroke="#FFFFFF"/><text x="197.0" y="211.0" font-family="Arial, sans-serif" font-size="16" font-weight="700" text-anchor="middle" fill="#111827">0</text><rect x="234.0" y="169.0" width="74.0" height="74.0" rx="0" fill="rgb(79,174,185)" stroke="#FFFFFF"/><text x="271.0" y="211.0" font-family="Arial, sans-serif" font-size="16" font-weight="700" text-anchor="middle" fill="#FFFFFF">76</text><rect x="308.0" y="169.0" width="74.0" height="74.0" rx="0" fill="rgb(221,242,244)" stroke="#FFFFFF"/><text x="345.0" y="211.0" font-family="Arial, sans-serif" font-size="16" font-weight="700" text-anchor="middle" fill="#111827">8</text><rect x="382.0" y="169.0" width="74.0" height="74.0" rx="0" fill="rgb(235,249,251)" stroke="#FFFFFF"/><text x="419.0" y="211.0" font-family="Arial, sans-serif" font-size="16" font-weight="700" text-anchor="middle" fill="#111827">1</text><rect x="456.0" y="169.0" width="74.0" height="74.0" rx="0" fill="rgb(238,250,252)" stroke="#FFFFFF"/><text x="493.0" y="211.0" font-family="Arial, sans-serif" font-size="16" font-weight="700" text-anchor="middle" fill="#111827">0</text><rect x="530.0" y="169.0" width="74.0" height="74.0" rx="0" fill="rgb(238,250,252)" stroke="#FFFFFF"/><text x="567.0" y="211.0" font-family="Arial, sans-serif" font-size="16" font-weight="700" text-anchor="middle" fill="#111827">0</text><rect x="160.0" y="243.0" width="74.0" height="74.0" rx="0" fill="rgb(238,250,252)" stroke="#FFFFFF"/><text x="197.0" y="285.0" font-family="Arial, sans-serif" font-size="16" font-weight="700" text-anchor="middle" fill="#111827">0</text><rect x="234.0" y="243.0" width="74.0" height="74.0" rx="0" fill="rgb(238,250,252)" stroke="#FFFFFF"/><text x="271.0" y="285.0" font-family="Arial, sans-serif" font-size="16" font-weight="700" text-anchor="middle" fill="#111827">0</text><rect x="308.0" y="243.0" width="74.0" height="74.0" rx="0" fill="rgb(48,160,172)" stroke="#FFFFFF"/><text x="345.0" y="285.0" font-family="Arial, sans-serif" font-size="16" font-weight="700" text-anchor="middle" fill="#FFFFFF">91</text><rect x="382.0" y="243.0" width="74.0" height="74.0" rx="0" fill="rgb(238,250,252)" stroke="#FFFFFF"/><text x="419.0" y="285.0" font-family="Arial, sans-serif" font-size="16" font-weight="700" text-anchor="middle" fill="#111827">0</text><rect x="456.0" y="243.0" width="74.0" height="74.0" rx="0" fill="rgb(238,250,252)" stroke="#FFFFFF"/><text x="493.0" y="285.0" font-family="Arial, sans-serif" font-size="16" font-weight="700" text-anchor="middle" fill="#111827">0</text><rect x="530.0" y="243.0" width="74.0" height="74.0" rx="0" fill="rgb(238,250,252)" stroke="#FFFFFF"/><text x="567.0" y="285.0" font-family="Arial, sans-serif" font-size="16" font-weight="700" text-anchor="middle" fill="#111827">0</text><rect x="160.0" y="317.0" width="74.0" height="74.0" rx="0" fill="rgb(238,250,252)" stroke="#FFFFFF"/><text x="197.0" y="359.0" font-family="Arial, sans-serif" font-size="16" font-weight="700" text-anchor="middle" fill="#111827">0</text><rect x="234.0" y="317.0" width="74.0" height="74.0" rx="0" fill="rgb(238,250,252)" stroke="#FFFFFF"/><text x="271.0" y="359.0" font-family="Arial, sans-serif" font-size="16" font-weight="700" text-anchor="middle" fill="#111827">0</text><rect x="308.0" y="317.0" width="74.0" height="74.0" rx="0" fill="rgb(235,249,251)" stroke="#FFFFFF"/><text x="345.0" y="359.0" font-family="Arial, sans-serif" font-size="16" font-weight="700" text-anchor="middle" fill="#111827">1</text><rect x="382.0" y="317.0" width="74.0" height="74.0" rx="0" fill="rgb(79,174,185)" stroke="#FFFFFF"/><text x="419.0" y="359.0" font-family="Arial, sans-serif" font-size="16" font-weight="700" text-anchor="middle" fill="#FFFFFF">76</text><rect x="456.0" y="317.0" width="74.0" height="74.0" rx="0" fill="rgb(238,250,252)" stroke="#FFFFFF"/><text x="493.0" y="359.0" font-family="Arial, sans-serif" font-size="16" font-weight="700" text-anchor="middle" fill="#111827">0</text><rect x="530.0" y="317.0" width="74.0" height="74.0" rx="0" fill="rgb(238,250,252)" stroke="#FFFFFF"/><text x="567.0" y="359.0" font-family="Arial, sans-serif" font-size="16" font-weight="700" text-anchor="middle" fill="#111827">0</text><rect x="160.0" y="391.0" width="74.0" height="74.0" rx="0" fill="rgb(238,250,252)" stroke="#FFFFFF"/><text x="197.0" y="433.0" font-family="Arial, sans-serif" font-size="16" font-weight="700" text-anchor="middle" fill="#111827">0</text><rect x="234.0" y="391.0" width="74.0" height="74.0" rx="0" fill="rgb(238,250,252)" stroke="#FFFFFF"/><text x="271.0" y="433.0" font-family="Arial, sans-serif" font-size="16" font-weight="700" text-anchor="middle" fill="#111827">0</text><rect x="308.0" y="391.0" width="74.0" height="74.0" rx="0" fill="rgb(238,250,252)" stroke="#FFFFFF"/><text x="345.0" y="433.0" font-family="Arial, sans-serif" font-size="16" font-weight="700" text-anchor="middle" fill="#111827">0</text><rect x="382.0" y="391.0" width="74.0" height="74.0" rx="0" fill="rgb(238,250,252)" stroke="#FFFFFF"/><text x="419.0" y="433.0" font-family="Arial, sans-serif" font-size="16" font-weight="700" text-anchor="middle" fill="#111827">0</text><rect x="456.0" y="391.0" width="74.0" height="74.0" rx="0" fill="rgb(73,171,182)" stroke="#FFFFFF"/><text x="493.0" y="433.0" font-family="Arial, sans-serif" font-size="16" font-weight="700" text-anchor="middle" fill="#FFFFFF">79</text><rect x="530.0" y="391.0" width="74.0" height="74.0" rx="0" fill="rgb(238,250,252)" stroke="#FFFFFF"/><text x="567.0" y="433.0" font-family="Arial, sans-serif" font-size="16" font-weight="700" text-anchor="middle" fill="#111827">0</text><rect x="160.0" y="465.0" width="74.0" height="74.0" rx="0" fill="rgb(238,250,252)" stroke="#FFFFFF"/><text x="197.0" y="507.0" font-family="Arial, sans-serif" font-size="16" font-weight="700" text-anchor="middle" fill="#111827">0</text><rect x="234.0" y="465.0" width="74.0" height="74.0" rx="0" fill="rgb(238,250,252)" stroke="#FFFFFF"/><text x="271.0" y="507.0" font-family="Arial, sans-serif" font-size="16" font-weight="700" text-anchor="middle" fill="#111827">0</text><rect x="308.0" y="465.0" width="74.0" height="74.0" rx="0" fill="rgb(238,250,252)" stroke="#FFFFFF"/><text x="345.0" y="507.0" font-family="Arial, sans-serif" font-size="16" font-weight="700" text-anchor="middle" fill="#111827">0</text><rect x="382.0" y="465.0" width="74.0" height="74.0" rx="0" fill="rgb(238,250,252)" stroke="#FFFFFF"/><text x="419.0" y="507.0" font-family="Arial, sans-serif" font-size="16" font-weight="700" text-anchor="middle" fill="#111827">0</text><rect x="456.0" y="465.0" width="74.0" height="74.0" rx="0" fill="rgb(238,250,252)" stroke="#FFFFFF"/><text x="493.0" y="507.0" font-family="Arial, sans-serif" font-size="16" font-weight="700" text-anchor="middle" fill="#111827">0</text><rect x="530.0" y="465.0" width="74.0" height="74.0" rx="0" fill="rgb(93,181,191)" stroke="#FFFFFF"/><text x="567.0" y="507.0" font-family="Arial, sans-serif" font-size="16" font-weight="700" text-anchor="middle" fill="#FFFFFF">69</text><text x="40.0" y="638.0" font-family="Arial, sans-serif" font-size="13" font-weight="400" text-anchor="start" fill="#475569">La mayor confusión aparece entre QPSK y 8PSK, porque ambas codifican información principalmente en fase.</text></svg>